# xmcd CD database file
# Copyright (C) 1993-1996 Ti Kan
#
# Track frame offsets:
#	175
#	12717
#	25800
#	38745
#	48717
#	61725
#	72835
#	83432
#	96407
#	107912
#	121020
#	133647
#	145607
#
# Disc length: 2129 seconds
#
# Revision: 1
# Processed by: cddbd v1.4b41PL1 Copyright (c) Steve Scherf et al.
# Submitted via: CDValet v3.01 - Copyright (c) 1997 Greg Leichner
#
DISCID=aa084f0d
DTITLE=Elmore James - The Complete Fire and Enjoy Sessions Part 1
DYEAR=1900
DGENRE=
TTITLE0=The Sky Is Crying
TTITLE1=Baby Please Set a Date
TTITLE2=Held My Baby Last Night
TTITLE3=Bobby's Rock
TTITLE4=Dust My Broom
TTITLE5=Rollin' and Tumblin'
TTITLE6=Done Somebody Wrong
TTITLE7=I'm Worried
TTITLE8=Fine Little Mama
TTITLE9=I Need You
TTITLE10=Early One Morning
TTITLE11=I Can't Stop Loving You
TTITLE12=Strange Angels
EXTD=
EXTT0=
EXTT1=
EXTT2=
EXTT3=
EXTT4=
EXTT5=
EXTT6=
EXTT7=
EXTT8=
EXTT9=
EXTT10=
EXTT11=
EXTT12=
PLAYORDER=
